<svg width="125" height="36" viewBox="0 0 125 36" fill="none" xmlns="http://www.w3.org/2000/svg">
<path d="M26.29 12.298H28.6998V25.373H26.29V12.298ZM28.0885 19.1294H31.224C31.9004 19.1294 32.4289 18.9241 32.8115 18.5155C33.1941 18.1049 33.3854 17.5494 33.3854 16.8469C33.3854 16.1444 33.1941 15.5949 32.8115 15.1984C32.4289 14.8019 31.9004 14.6026 31.224 14.6026H28.0885V12.3H31.4153C32.2948 12.3 33.0619 12.4892 33.7186 12.8656C34.3753 13.244 34.888 13.7734 35.2588 14.4557C35.6275 15.138 35.8129 15.9351 35.8129 16.8469C35.8129 17.7587 35.6275 18.5739 35.2588 19.2562C34.888 19.9385 34.3753 20.4639 33.7186 20.8282C33.0619 21.1925 32.2948 21.3757 31.4153 21.3757H28.0885V19.1314V19.1294Z" fill="#051C2C"/>
<path d="M37.9059 13.7633C37.6574 13.5037 37.5332 13.1716 37.5332 12.769C37.5332 12.3403 37.6574 12.0022 37.9059 11.7546C38.1544 11.507 38.4955 11.3842 38.9294 11.3842C39.3632 11.3842 39.6866 11.509 39.943 11.7546C40.1974 12.0022 40.3256 12.3403 40.3256 12.769C40.3256 13.1716 40.1974 13.5037 39.943 13.7633C39.6886 14.023 39.3494 14.1538 38.9294 14.1538C38.5094 14.1538 38.1544 14.023 37.9059 13.7633ZM37.7817 15.6171H40.0949V25.3751H37.7817V15.6171Z" fill="#051C2C"/>
<path d="M44.2715 25.1195C43.6523 24.7934 43.173 24.3465 42.8279 23.7729C42.4828 23.2013 42.3113 22.531 42.3113 21.7621V19.226C42.3113 18.4592 42.4828 17.7849 42.8279 17.2072C43.173 16.6275 43.6523 16.1787 44.2715 15.8607C44.8887 15.5426 45.6006 15.3816 46.4032 15.3816C47.2058 15.3816 47.9355 15.5406 48.5547 15.8607C49.1719 16.1787 49.6511 16.6275 49.9883 17.2072C50.3256 17.7869 50.4951 18.4592 50.4951 19.226V21.7621C50.4951 22.529 50.3236 23.1993 49.9785 23.7729C49.6334 24.3465 49.1522 24.7954 48.535 25.1195C47.9158 25.4435 47.2058 25.6066 46.4032 25.6066C45.6006 25.6066 44.8887 25.4435 44.2715 25.1195ZM47.7126 23.002C48.038 22.6961 48.1997 22.2834 48.1997 21.7621V19.226C48.1997 18.7067 48.038 18.2921 47.7126 17.9862C47.3872 17.6802 46.9573 17.5272 46.421 17.5272C45.8846 17.5272 45.433 17.6802 45.1017 17.9862C44.7704 18.2921 44.6047 18.7047 44.6047 19.226V21.7621C44.6047 22.2834 44.7664 22.6961 45.0918 23.002C45.4172 23.308 45.853 23.4609 46.4012 23.4609C46.9495 23.4609 47.3853 23.308 47.7107 23.002H47.7126Z" fill="#051C2C"/>
<path d="M52.696 15.6171H55.0092V25.3751H52.696V15.6171ZM58.0106 18.0365C57.705 17.7366 57.3086 17.5876 56.8254 17.5876C56.4547 17.5876 56.1372 17.6601 55.869 17.803C55.6008 17.9459 55.3918 18.1411 55.238 18.3887C55.0842 18.6363 55.0092 18.91 55.0092 19.2079H54.5497V17.0603H55.1433C55.3208 16.5531 55.656 16.1465 56.1471 15.8405C56.6381 15.5346 57.1962 15.3816 57.8193 15.3816C58.6989 15.3816 59.4088 15.6513 59.9511 16.1908C60.4934 16.7302 60.7636 17.4367 60.7636 18.3082V25.3731H58.4701V19.226C58.4701 18.7309 58.3163 18.3344 58.0106 18.0365Z" fill="#051C2C"/>
<path d="M64.8363 25.1295C64.1993 24.8115 63.7102 24.3626 63.373 23.7829C63.0358 23.2033 62.8662 22.531 62.8662 21.7641V19.228C62.8662 18.4611 63.0378 17.7869 63.3829 17.2092C63.728 16.6295 64.2072 16.1847 64.8264 15.8727C65.4436 15.5607 66.1555 15.4037 66.9581 15.4037C67.7608 15.4037 68.4943 15.5567 69.1195 15.8626C69.7446 16.1686 70.2218 16.6134 70.5531 17.1991C70.8844 17.7848 71.0501 18.4611 71.0501 19.228V21.3555H64.5681V19.54H69.0603L68.7547 20.0271V19.0509C68.7547 18.5316 68.589 18.1149 68.2577 17.803C67.9264 17.491 67.4926 17.334 66.9581 17.334C66.4237 17.334 65.9899 17.491 65.6586 17.803C65.3273 18.1149 65.1616 18.5316 65.1616 19.0509V21.9191C65.1616 22.4404 65.3332 22.8591 65.6783 23.1771C66.0214 23.4951 66.4691 23.6561 67.0173 23.6561C67.5655 23.6561 67.9599 23.5454 68.2794 23.324C68.5989 23.1026 68.7566 22.8047 68.7566 22.4263V22.3881H71.0521V22.4263C71.0521 23.0503 70.8825 23.6038 70.5452 24.0849C70.208 24.5659 69.7347 24.9403 69.1293 25.208C68.5239 25.4737 67.8199 25.6085 67.0173 25.6085C66.2147 25.6085 65.4752 25.4495 64.8382 25.1295H64.8363Z" fill="#051C2C"/>
<path d="M74.856 25.1295C74.2191 24.8115 73.73 24.3626 73.3928 23.7829C73.0556 23.2033 72.886 22.531 72.886 21.7641V19.228C72.886 18.4611 73.0576 17.7869 73.4027 17.2092C73.7478 16.6295 74.227 16.1847 74.8462 15.8727C75.4634 15.5607 76.1753 15.4037 76.9779 15.4037C77.7805 15.4037 78.5141 15.5567 79.1393 15.8626C79.7644 16.1686 80.2416 16.6134 80.5729 17.1991C80.9042 17.7848 81.0699 18.4611 81.0699 19.228V21.3555H74.5878V19.54H79.0801L78.7744 20.0271V19.0509C78.7744 18.5316 78.6088 18.1149 78.2775 17.803C77.9462 17.491 77.5123 17.334 76.9779 17.334C76.4435 17.334 76.0097 17.491 75.6784 17.803C75.3471 18.1149 75.1814 18.5316 75.1814 19.0509V21.9191C75.1814 22.4404 75.353 22.8591 75.6981 23.1771C76.0412 23.4951 76.4889 23.6561 77.0371 23.6561C77.5853 23.6561 77.9797 23.5454 78.2992 23.324C78.6186 23.1026 78.7764 22.8047 78.7764 22.4263V22.3881H81.0718V22.4263C81.0718 23.0503 80.9022 23.6038 80.565 24.0849C80.2278 24.5659 79.7545 24.9403 79.1491 25.208C78.5437 25.4737 77.8397 25.6085 77.0371 25.6085C76.2345 25.6085 75.495 25.4495 74.858 25.1295H74.856Z" fill="#051C2C"/>
<path d="M83.2668 15.6171H85.58V25.3751H83.2668V15.6171ZM85.1205 17.3139H85.7141C85.8798 16.702 86.1854 16.227 86.6311 15.8888C87.0768 15.5507 87.6132 15.3816 88.2363 15.3816H88.5992V17.7829H88.1594C87.6368 17.7829 87.1774 17.8835 86.7829 18.0848C86.3885 18.2861 86.0888 18.5699 85.8837 18.9342C85.6786 19.2985 85.578 19.7091 85.578 20.164H85.1186V17.3139H85.1205Z" fill="#051C2C"/>
<path d="M90.5421 13.7633C90.2937 13.5037 90.1694 13.1716 90.1694 12.769C90.1694 12.3403 90.2937 12.0022 90.5421 11.7546C90.7906 11.507 91.1318 11.3842 91.5656 11.3842C91.9995 11.3842 92.3229 11.509 92.5792 11.7546C92.8336 12.0022 92.9618 12.3403 92.9618 12.769C92.9618 13.1716 92.8336 13.5037 92.5792 13.7633C92.3248 14.023 91.9857 14.1538 91.5656 14.1538C91.1456 14.1538 90.7906 14.023 90.5421 13.7633ZM90.4179 15.6171H92.7311V25.3751H90.4179V15.6171Z" fill="#051C2C"/>
<path d="M95.3135 15.6171H97.6267V25.3751H95.3135V15.6171ZM100.628 18.0365C100.322 17.7366 99.926 17.5876 99.4429 17.5876C99.0721 17.5876 98.7546 17.6601 98.4865 17.803C98.2183 17.9459 98.0092 18.1411 97.8554 18.3887C97.7016 18.6363 97.6267 18.91 97.6267 19.2079H97.1672V17.0603H97.7608C97.9382 16.5531 98.2735 16.1465 98.7645 15.8405C99.2555 15.5346 99.8136 15.3816 100.437 15.3816C101.316 15.3816 102.026 15.6513 102.569 16.1908C103.111 16.7302 103.381 17.4367 103.381 18.3082V25.3731H101.088V19.226C101.088 18.7309 100.934 18.3344 100.628 18.0365Z" fill="#051C2C"/>
<path d="M106.393 24.2218C105.825 23.636 105.543 22.8631 105.543 21.899V18.5819C105.543 17.6319 105.829 16.861 106.403 16.2693C106.976 15.6775 107.716 15.3816 108.621 15.3816C109.258 15.3816 109.816 15.5346 110.293 15.8405C110.771 16.1465 111.1 16.5531 111.277 17.0603H111.871V19.2663H111.431C111.431 18.9543 111.354 18.6705 111.202 18.4169C111.049 18.1633 110.832 17.962 110.552 17.811C110.272 17.6621 109.952 17.5876 109.595 17.5876C109.061 17.5876 108.633 17.7406 108.313 18.0465C107.994 18.3525 107.836 18.7651 107.836 19.2864V21.1986C107.836 21.7058 107.996 22.1164 108.313 22.4284C108.633 22.7404 109.059 22.8973 109.595 22.8973C109.952 22.8973 110.268 22.8229 110.542 22.6739C110.816 22.525 111.033 22.3217 111.193 22.0681C111.352 21.8145 111.431 21.5307 111.431 21.2187H111.871V23.4831H111.277C111.086 23.9782 110.751 24.3707 110.274 24.6646C109.796 24.9584 109.244 25.1034 108.619 25.1034C107.702 25.1034 106.959 24.8115 106.391 24.2258L106.393 24.2218ZM107.615 28.7505C107.022 28.503 106.556 28.1487 106.219 27.6878C105.882 27.2248 105.712 26.6955 105.712 26.0977V25.9226H107.931V26.0011C107.931 26.3915 108.093 26.7136 108.418 26.9672C108.743 27.2208 109.148 27.3476 109.633 27.3476C110.169 27.3476 110.601 27.1987 110.932 26.8988C111.264 26.5989 111.429 26.1822 111.429 25.6488V15.6171H113.725V25.7837C113.725 26.4338 113.555 27.0135 113.218 27.5207C112.881 28.0279 112.407 28.4204 111.804 28.7022C111.198 28.982 110.481 29.1209 109.652 29.1209C108.887 29.1209 108.209 28.9961 107.615 28.7505Z" fill="#051C2C"/>
<path d="M15.1927 23.3104L19.754 19.5746C19.8072 19.5304 19.8368 19.4659 19.8368 19.3955V15.8731C19.8368 15.8047 19.8072 15.7383 19.754 15.696L5.16303 3.62131C5.05259 3.53074 4.88892 3.60923 4.88892 3.75415V11.1572C4.88892 11.2256 4.9185 11.292 4.97174 11.3343L14.3171 19.0674C14.6997 19.3834 14.9206 19.8584 14.9206 20.3616V23.1775C14.9206 23.3204 15.0842 23.4009 15.1927 23.3104Z" fill="#FF671D"/>
<path d="M13.6565 26.4459L11.787 24.898C11.4044 24.582 11.1836 24.107 11.1836 23.6038V19.0811C11.1836 18.9382 11.0199 18.8577 10.9114 18.9483L6.35016 22.684C6.29691 22.7283 6.26733 22.7927 6.26733 22.8631V28.1084C6.26733 28.1769 6.29691 28.2433 6.35016 28.2856L13.4691 34.179C13.5796 34.2696 13.7433 34.1911 13.7433 34.0462V26.623C13.7433 26.5546 13.7137 26.4881 13.6604 26.4459H13.6565Z" fill="#FF671D"/>
</svg>
