<svg width="131" height="32" viewBox="0 0 131 32" fill="none" xmlns="http://www.w3.org/2000/svg">
<g clip-path="url(#clip0_8264_786)">
<path d="M29.29 10.2979H31.6998V23.3729H29.29V10.2979ZM31.0885 17.1292H34.224C34.9004 17.1292 35.4289 16.9239 35.8115 16.5153C36.1941 16.1047 36.3854 15.5492 36.3854 14.8467C36.3854 14.1443 36.1941 13.5948 35.8115 13.1983C35.4289 12.8018 34.9004 12.6025 34.224 12.6025H31.0885V10.2999H34.4153C35.2948 10.2999 36.0619 10.4891 36.7186 10.8655C37.3753 11.2439 37.888 11.7732 38.2588 12.4556C38.6275 13.1379 38.8129 13.935 38.8129 14.8467C38.8129 15.7585 38.6275 16.5737 38.2588 17.256C37.888 17.9384 37.3753 18.4637 36.7186 18.828C36.0619 19.1923 35.2948 19.3755 34.4153 19.3755H31.0885V17.1312V17.1292Z" fill="white"/>
<path d="M40.9059 11.7634C40.6574 11.5037 40.5332 11.1716 40.5332 10.7691C40.5332 10.3403 40.6574 10.0022 40.9059 9.75463C41.1544 9.50706 41.4955 9.38428 41.9294 9.38428C42.3632 9.38428 42.6866 9.50907 42.943 9.75463C43.1974 10.0022 43.3256 10.3403 43.3256 10.7691C43.3256 11.1716 43.1974 11.5037 42.943 11.7634C42.6886 12.023 42.3494 12.1539 41.9294 12.1539C41.5094 12.1539 41.1544 12.023 40.9059 11.7634ZM40.7817 13.6172H43.0949V23.3751H40.7817V13.6172Z" fill="white"/>
<path d="M47.2715 23.1192C46.6523 22.7931 46.173 22.3463 45.8279 21.7726C45.4828 21.201 45.3113 20.5308 45.3113 19.7619V17.2258C45.3113 16.4589 45.4828 15.7846 45.8279 15.2069C46.173 14.6273 46.6523 14.1784 47.2715 13.8604C47.8887 13.5424 48.6006 13.3813 49.4032 13.3813C50.2058 13.3813 50.9355 13.5404 51.5547 13.8604C52.1719 14.1784 52.6511 14.6273 52.9883 15.2069C53.3256 15.7866 53.4951 16.4589 53.4951 17.2258V19.7619C53.4951 20.5287 53.3236 21.199 52.9785 21.7726C52.6334 22.3463 52.1522 22.7951 51.535 23.1192C50.9157 23.4432 50.2058 23.6063 49.4032 23.6063C48.6006 23.6063 47.8887 23.4432 47.2715 23.1192ZM50.7126 21.0017C51.038 20.6958 51.1997 20.2832 51.1997 19.7619V17.2258C51.1997 16.7065 51.038 16.2918 50.7126 15.9859C50.3872 15.6799 49.9573 15.527 49.421 15.527C48.8846 15.527 48.433 15.6799 48.1017 15.9859C47.7704 16.2918 47.6047 16.7045 47.6047 17.2258V19.7619C47.6047 20.2832 47.7664 20.6958 48.0918 21.0017C48.4172 21.3077 48.853 21.4607 49.4012 21.4607C49.9495 21.4607 50.3853 21.3077 50.7107 21.0017H50.7126Z" fill="white"/>
<path d="M55.696 13.6168H58.0092V23.3748H55.696V13.6168ZM61.0106 16.0362C60.705 15.7363 60.3086 15.5874 59.8254 15.5874C59.4547 15.5874 59.1372 15.6598 58.869 15.8027C58.6008 15.9456 58.3918 16.1409 58.238 16.3884C58.0842 16.636 58.0092 16.9098 58.0092 17.2076H57.5497V15.06H58.1433C58.3208 14.5528 58.656 14.1462 59.1471 13.8403C59.6381 13.5343 60.1962 13.3813 60.8193 13.3813C61.6989 13.3813 62.4088 13.6511 62.9511 14.1905C63.4934 14.7299 63.7636 15.4364 63.7636 16.3079V23.3728H61.4701V17.2258C61.4701 16.7306 61.3163 16.3341 61.0106 16.0362Z" fill="white"/>
<path d="M67.836 23.1296C67.199 22.8116 66.71 22.3627 66.3728 21.783C66.0356 21.2033 65.866 20.5311 65.866 19.7642V17.2281C65.866 16.4612 66.0375 15.7869 66.3826 15.2093C66.7277 14.6296 67.2069 14.1848 67.8262 13.8728C68.4434 13.5608 69.1553 13.4038 69.9579 13.4038C70.7605 13.4038 71.4941 13.5568 72.1192 13.8627C72.7444 14.1687 73.2216 14.6135 73.5529 15.1992C73.8842 15.7849 74.0498 16.4612 74.0498 17.2281V19.3556H67.5678V17.5401H72.0601L71.7544 18.0272V17.051C71.7544 16.5317 71.5888 16.115 71.2575 15.803C70.9262 15.4911 70.4923 15.3341 69.9579 15.3341C69.4235 15.3341 68.9896 15.4911 68.6583 15.803C68.327 16.115 68.1614 16.5317 68.1614 17.051V19.9192C68.1614 20.4405 68.333 20.8592 68.6781 21.1772C69.0212 21.4952 69.4688 21.6562 70.0171 21.6562C70.5653 21.6562 70.9597 21.5455 71.2792 21.3241C71.5986 21.1027 71.7564 20.8048 71.7564 20.4264V20.3882H74.0518V20.4264C74.0518 21.0504 73.8822 21.6039 73.545 22.0849C73.2078 22.566 72.7345 22.9404 72.1291 23.2081C71.5237 23.4738 70.8197 23.6086 70.0171 23.6086C69.2144 23.6086 68.4749 23.4496 67.838 23.1296H67.836Z" fill="white"/>
<path d="M77.856 23.1296C77.2191 22.8116 76.73 22.3627 76.3928 21.783C76.0556 21.2033 75.886 20.5311 75.886 19.7642V17.2281C75.886 16.4612 76.0576 15.7869 76.4027 15.2093C76.7478 14.6296 77.227 14.1848 77.8462 13.8728C78.4634 13.5608 79.1753 13.4038 79.9779 13.4038C80.7805 13.4038 81.5141 13.5568 82.1393 13.8627C82.7644 14.1687 83.2416 14.6135 83.5729 15.1992C83.9042 15.7849 84.0699 16.4612 84.0699 17.2281V19.3556H77.5878V17.5401H82.0801L81.7744 18.0272V17.051C81.7744 16.5317 81.6088 16.115 81.2775 15.803C80.9462 15.4911 80.5123 15.3341 79.9779 15.3341C79.4435 15.3341 79.0097 15.4911 78.6784 15.803C78.3471 16.115 78.1814 16.5317 78.1814 17.051V19.9192C78.1814 20.4405 78.353 20.8592 78.6981 21.1772C79.0412 21.4952 79.4889 21.6562 80.0371 21.6562C80.5853 21.6562 80.9797 21.5455 81.2992 21.3241C81.6186 21.1027 81.7764 20.8048 81.7764 20.4264V20.3882H84.0718V20.4264C84.0718 21.0504 83.9022 21.6039 83.565 22.0849C83.2278 22.566 82.7545 22.9404 82.1491 23.2081C81.5437 23.4738 80.8397 23.6086 80.0371 23.6086C79.2345 23.6086 78.495 23.4496 77.858 23.1296H77.856Z" fill="white"/>
<path d="M86.2668 13.6168H88.58V23.3748H86.2668V13.6168ZM88.1205 15.3136H88.7141C88.8798 14.7017 89.1854 14.2267 89.6311 13.8886C90.0768 13.5504 90.6132 13.3813 91.2363 13.3813H91.5992V15.7826H91.1594C90.6368 15.7826 90.1774 15.8832 89.7829 16.0845C89.3885 16.2858 89.0888 16.5696 88.8837 16.9339C88.6786 17.2982 88.578 17.7088 88.578 18.1637H88.1186V15.3136H88.1205Z" fill="white"/>
<path d="M93.5424 11.7634C93.2939 11.5037 93.1697 11.1716 93.1697 10.7691C93.1697 10.3403 93.2939 10.0022 93.5424 9.75463C93.7909 9.50706 94.132 9.38428 94.5659 9.38428C94.9997 9.38428 95.3231 9.50907 95.5795 9.75463C95.8339 10.0022 95.962 10.3403 95.962 10.7691C95.962 11.1716 95.8339 11.5037 95.5795 11.7634C95.3251 12.023 94.9859 12.1539 94.5659 12.1539C94.1458 12.1539 93.7909 12.023 93.5424 11.7634ZM93.4181 13.6172H95.7313V23.3751H93.4181V13.6172Z" fill="white"/>
<path d="M98.3137 13.6168H100.627V23.3748H98.3137V13.6168ZM103.628 16.0362C103.323 15.7363 102.926 15.5874 102.443 15.5874C102.072 15.5874 101.755 15.6598 101.487 15.8027C101.219 15.9456 101.009 16.1409 100.856 16.3884C100.702 16.636 100.627 16.9098 100.627 17.2076H100.167V15.06H100.761C100.938 14.5528 101.274 14.1462 101.765 13.8403C102.256 13.5343 102.814 13.3813 103.437 13.3813C104.317 13.3813 105.026 13.6511 105.569 14.1905C106.111 14.7299 106.381 15.4364 106.381 16.3079V23.3728H104.088V17.2258C104.088 16.7306 103.934 16.3341 103.628 16.0362Z" fill="white"/>
<path d="M109.393 22.2215C108.825 21.6358 108.543 20.8629 108.543 19.8987V16.5817C108.543 15.6316 108.829 14.8607 109.403 14.269C109.976 13.6772 110.716 13.3813 111.621 13.3813C112.258 13.3813 112.816 13.5343 113.293 13.8403C113.771 14.1462 114.1 14.5528 114.277 15.06H114.871V17.266H114.431C114.431 16.954 114.354 16.6702 114.202 16.4166C114.049 16.163 113.832 15.9617 113.552 15.8108C113.272 15.6618 112.952 15.5874 112.595 15.5874C112.061 15.5874 111.633 15.7403 111.313 16.0463C110.994 16.3522 110.836 16.7648 110.836 17.2861V19.1983C110.836 19.7055 110.996 20.1161 111.313 20.4281C111.633 20.7401 112.059 20.8971 112.595 20.8971C112.952 20.8971 113.268 20.8226 113.542 20.6737C113.816 20.5247 114.033 20.3214 114.193 20.0678C114.352 19.8142 114.431 19.5304 114.431 19.2184H114.871V21.4828H114.277C114.086 21.9779 113.751 22.3704 113.274 22.6643C112.796 22.9582 112.244 23.1031 111.619 23.1031C110.702 23.1031 109.959 22.8112 109.391 22.2255L109.393 22.2215ZM110.615 26.7503C110.022 26.5027 109.556 26.1484 109.219 25.6875C108.882 25.2246 108.712 24.6952 108.712 24.0974V23.9223H110.931V24.0008C110.931 24.3913 111.093 24.7133 111.418 24.9669C111.743 25.2205 112.148 25.3473 112.633 25.3473C113.169 25.3473 113.601 25.1984 113.932 24.8985C114.264 24.5986 114.429 24.1819 114.429 23.6486V13.6168H116.725V23.7834C116.725 24.4335 116.555 25.0132 116.218 25.5204C115.881 26.0277 115.407 26.4202 114.804 26.702C114.198 26.9817 113.481 27.1206 112.652 27.1206C111.887 27.1206 111.209 26.9958 110.615 26.7503Z" fill="white"/>
<path d="M18.1927 21.3102L22.754 17.5745C22.8072 17.5302 22.8368 17.4658 22.8368 17.3954V13.873C22.8368 13.8046 22.8072 13.7381 22.754 13.6959L8.16303 1.62117C8.05259 1.5306 7.88892 1.6091 7.88892 1.75402V9.15704C7.88892 9.22547 7.9185 9.29189 7.97174 9.33416L17.3171 17.0673C17.6997 17.3833 17.9206 17.8583 17.9206 18.3615V21.1774C17.9206 21.3203 18.0842 21.4008 18.1927 21.3102Z" fill="#FF671D"/>
<path d="M16.6565 24.4456L14.787 22.8977C14.4044 22.5817 14.1836 22.1067 14.1836 21.6035V17.0808C14.1836 16.9379 14.0199 16.8574 13.9114 16.948L9.35016 20.6837C9.29691 20.728 9.26733 20.7924 9.26733 20.8628V26.1081C9.26733 26.1766 9.29691 26.243 9.35016 26.2853L16.4691 32.1787C16.5796 32.2693 16.7433 32.1908 16.7433 32.0458V24.6227C16.7433 24.5543 16.7137 24.4878 16.6604 24.4456H16.6565Z" fill="#FF671D"/>
</g>
<defs>
<clipPath id="clip0_8264_786">
<rect width="130.667" height="32" fill="white"/>
</clipPath>
</defs>
</svg>
