<svg width="22" height="22" viewBox="0 0 22 22" fill="none" xmlns="http://www.w3.org/2000/svg">
<path d="M17.7778 3.55566H3.55561C2.57517 3.55566 1.77783 4.353 1.77783 5.33344V16.0001C1.77783 16.9806 2.57517 17.7779 3.55561 17.7779H17.7778C18.7583 17.7779 19.5556 16.9806 19.5556 16.0001V5.33344C19.5556 4.353 18.7583 3.55566 17.7778 3.55566ZM17.7778 5.33344V5.78766L10.6667 11.3192L3.55561 5.78855V5.33344H17.7778ZM3.55561 16.0001V8.03922L10.1209 13.1459C10.2766 13.2681 10.4688 13.3346 10.6667 13.3346C10.8647 13.3346 11.0568 13.2681 11.2125 13.1459L17.7778 8.03922L17.7796 16.0001H3.55561Z" fill="#FF671D"/>
</svg>
