<svg width="45" height="38" viewBox="0 0 45 38" fill="none" xmlns="http://www.w3.org/2000/svg">
<path d="M38.5805 31.264C38.5805 32.7558 38.0132 34.1866 37.0034 35.2415C35.9936 36.2964 34.624 36.889 33.1959 36.889C31.7678 36.889 30.3983 36.2964 29.3884 35.2415C28.3786 34.1866 27.8113 32.7558 27.8113 31.264C27.8113 29.7721 28.3786 28.3414 29.3884 27.2865C30.3983 26.2316 31.7678 25.6389 33.1959 25.6389C34.624 25.6389 35.9936 26.2316 37.0034 27.2865C38.0132 28.3414 38.5805 29.7721 38.5805 31.264ZM17.0421 31.264C17.0421 32.7558 16.4748 34.1866 15.465 35.2415C14.4552 36.2964 13.0856 36.889 11.6575 36.889C10.2295 36.889 8.85987 36.2964 7.85006 35.2415C6.84025 34.1866 6.27295 32.7558 6.27295 31.264C6.27295 29.7721 6.84025 28.3414 7.85006 27.2865C8.85987 26.2316 10.2295 25.6389 11.6575 25.6389C13.0856 25.6389 14.4552 26.2316 15.465 27.2865C16.4748 28.3414 17.0421 29.7721 17.0421 31.264Z" stroke="#FF671D" stroke-width="1.77778" stroke-linecap="round" stroke-linejoin="round"/>
<path d="M27.8117 31.2641H17.0425M0.888672 0.888916H22.4271C25.4726 0.888916 26.9954 0.888916 27.9409 1.87892C28.8886 2.86443 28.8886 4.45519 28.8886 7.63897V26.7641M29.9655 6.51396H33.8446C35.6322 6.51396 36.5261 6.51396 37.267 6.95271C38.0079 7.38922 38.4667 8.19022 39.3864 9.79223L43.0458 16.1598C43.5024 16.9563 43.7307 17.3568 43.8491 17.7978C43.9654 18.241 43.9654 18.7046 43.9654 19.6338V25.6391C43.9654 27.7429 43.9654 28.7936 43.5325 29.5766C43.249 30.0897 42.8412 30.5157 42.3501 30.8119C41.6005 31.2641 40.5947 31.2641 38.5808 31.2641M0.888672 21.1391V25.6391C0.888672 27.7429 0.888672 28.7936 1.32159 29.5766C1.60514 30.0897 2.01295 30.5157 2.50405 30.8119C3.25359 31.2641 4.25943 31.2641 6.27327 31.2641M0.888672 7.63897H13.8117M0.888672 14.389H9.50403" stroke="#FF671D" stroke-width="1.77778" stroke-linecap="round" stroke-linejoin="round"/>
</svg>
