<svg width="35" height="38" viewBox="0 0 35 38" fill="none" xmlns="http://www.w3.org/2000/svg">
<path d="M3.17107 5.07932C6.20587 2.73932 10.9201 0.888916 17.0887 0.888916C23.2573 0.888916 27.9715 2.73752 31.0063 5.07932C31.4329 5.40692 31.6471 5.57252 31.8217 5.86412C31.9693 6.10892 32.0737 6.47972 32.0791 6.76412C32.0827 7.10432 31.9711 7.40672 31.7425 8.00972C31.1845 9.50372 30.9037 10.2489 30.7903 10.9869C30.6481 11.9193 30.6463 12.1479 30.7777 13.0803C30.8821 13.8219 31.4527 15.3969 32.5903 18.5469C33.0514 19.8101 33.2877 21.1442 33.2887 22.4889C33.2887 27.8889 28.7887 32.1639 24.2887 33.2889C20.3431 34.2753 18.2893 35.6883 17.0887 36.8889C15.8881 35.6883 13.8343 34.2753 9.88867 33.2889C5.38867 32.1639 0.888672 27.8889 0.888672 22.4889C0.888672 21.0129 1.16947 19.7025 1.58707 18.5469C2.72647 15.3969 3.29527 13.8219 3.39967 13.0803C3.53107 12.1479 3.52927 11.9193 3.38707 10.9869C3.27367 10.2489 2.99467 9.50192 2.43307 8.00972C2.20807 7.40672 2.09467 7.10432 2.10007 6.76412C2.11215 6.44801 2.1998 6.13939 2.35567 5.86412C2.53027 5.57252 2.74447 5.40692 3.17107 5.07932Z" stroke="#FF671D" stroke-width="1.77778" stroke-linecap="round" stroke-linejoin="round"/>
<path d="M18.3322 10.9295L19.5994 13.4855C19.7069 13.677 19.8535 13.8437 20.0296 13.9749C20.2057 14.1061 20.4075 14.1988 20.6218 14.2469L22.9186 14.6303C24.3874 14.8769 24.733 15.9515 23.6746 17.0117L21.889 18.8117C21.7325 18.9889 21.6176 19.1989 21.5528 19.4262C21.488 19.6536 21.475 19.8926 21.5146 20.1257L22.0258 22.3541C22.429 24.1181 21.5002 24.8003 19.9522 23.8787L17.7994 22.5935C17.5792 22.4792 17.3347 22.4196 17.0866 22.4196C16.8385 22.4196 16.594 22.4792 16.3738 22.5935L14.221 23.8787C12.6802 24.8003 11.7442 24.1109 12.1474 22.3541L12.6586 20.1257C12.6982 19.8926 12.6851 19.6536 12.6203 19.4262C12.5556 19.1989 12.4407 18.9889 12.2842 18.8117L10.5004 17.0117C9.44919 15.9515 9.78759 14.8769 11.2564 14.6303L13.5514 14.2469C13.7645 14.1976 13.965 14.1043 14.1398 13.9728C14.3147 13.8414 14.4601 13.6747 14.5666 13.4837L15.8338 10.9277C16.525 9.54168 17.6482 9.54348 18.3322 10.9295Z" stroke="#FF671D" stroke-width="1.77778" stroke-linecap="round" stroke-linejoin="round"/>
</svg>
