<svg width="22" height="22" viewBox="0 0 22 22" fill="none" xmlns="http://www.w3.org/2000/svg">
<path d="M10.6668 12.4445C12.6277 12.4445 14.2224 10.8498 14.2224 8.88894C14.2224 6.92805 12.6277 5.33339 10.6668 5.33339C8.70594 5.33339 7.11127 6.92805 7.11127 8.88894C7.11127 10.8498 8.70594 12.4445 10.6668 12.4445ZM10.6668 7.11117C11.6473 7.11117 12.4446 7.9085 12.4446 8.88894C12.4446 9.86939 11.6473 10.6667 10.6668 10.6667C9.68639 10.6667 8.88905 9.86939 8.88905 8.88894C8.88905 7.9085 9.68639 7.11117 10.6668 7.11117Z" fill="#FF671D"/>
<path d="M10.1513 19.3903C10.3017 19.4977 10.482 19.5555 10.6669 19.5555C10.8517 19.5555 11.032 19.4977 11.1824 19.3903C11.4526 19.1992 17.8037 14.6134 17.778 8.88894C17.778 4.96806 14.5877 1.77783 10.6669 1.77783C6.74596 1.77783 3.55574 4.96805 3.55574 8.8845C3.52996 14.6134 9.88108 19.1992 10.1513 19.3903ZM10.6669 3.55561C13.6082 3.55561 16.0002 5.94761 16.0002 8.89339C16.0189 12.8383 12.0997 16.3805 10.6669 17.5423C9.23485 16.3796 5.31485 12.8365 5.33352 8.88894C5.33352 5.94761 7.72552 3.55561 10.6669 3.55561Z" fill="#FF671D"/>
</svg>
