<svg width="22" height="22" viewBox="0 0 22 22" fill="none" xmlns="http://www.w3.org/2000/svg">
<path d="M16.4286 11.4058C16.3418 11.3188 16.2388 11.2498 16.1253 11.2028C16.0118 11.1557 15.8902 11.1315 15.7673 11.1315C15.6445 11.1315 15.5228 11.1557 15.4093 11.2028C15.2959 11.2498 15.1928 11.3188 15.106 11.4058L13.6149 12.8967C12.9237 12.691 11.6338 12.2233 10.8162 11.4058C9.99866 10.5882 9.53096 9.29837 9.32517 8.60714L10.8162 7.11616C10.9031 7.02937 10.9721 6.92629 11.0192 6.81282C11.0662 6.69934 11.0905 6.5777 11.0905 6.45486C11.0905 6.33201 11.0662 6.21037 11.0192 6.0969C10.9721 5.98342 10.9031 5.88034 10.8162 5.79355L7.07458 2.05208C6.98779 1.96514 6.8847 1.89617 6.77122 1.84911C6.65775 1.80205 6.5361 1.77783 6.41325 1.77783C6.2904 1.77783 6.16876 1.80205 6.05528 1.84911C5.9418 1.89617 5.83871 1.96514 5.75192 2.05208L3.2151 4.5888C2.85964 4.94424 2.65947 5.4325 2.66695 5.93105C2.68846 7.26301 3.04111 11.8893 6.68733 15.5354C10.3335 19.1815 14.9601 19.5332 16.293 19.5556H16.3192C16.8131 19.5556 17.2799 19.3611 17.6334 19.0075L20.1703 16.4708C20.2572 16.384 20.3262 16.2809 20.3732 16.1674C20.4203 16.054 20.4445 15.9323 20.4445 15.8095C20.4445 15.6866 20.4203 15.565 20.3732 15.4515C20.3262 15.338 20.2572 15.235 20.1703 15.1482L16.4286 11.4058ZM16.3098 17.6839C15.1425 17.6643 11.1483 17.351 8.00999 14.2119C4.86141 11.0634 4.55647 7.05536 4.53776 5.91141L6.41325 4.036L8.83221 6.45486L7.62273 7.66429C7.51279 7.77415 7.43195 7.90967 7.38753 8.05861C7.3431 8.20755 7.3365 8.36521 7.3683 8.51734C7.39075 8.62491 7.93983 11.1757 9.49261 12.7284C11.0454 14.2811 13.5962 14.8301 13.7038 14.8526C13.8559 14.8853 14.0137 14.8792 14.1628 14.8349C14.3118 14.7906 14.4474 14.7095 14.5569 14.5991L15.7673 13.3897L18.1863 15.8085L16.3098 17.6839Z" fill="#FF671D"/>
</svg>
